<svg class="diagram-root" style="background: #f5f6f6" xmlns="http://www.w3.org/2000/svg" xmlns:xlink="http://www.w3.org/1999/xlink"><style>.diagram-root { font-family: "Helvetica Neue", sans-serif; font-size: 12px; } .t { overflow: visible; } .t-bg { y: 40; fill: #fff;   } .th { fill: #005aa0;   } .tht { fill: #fff; font-size: 14px;  } .tf { fill: #323c46; overflow: visible; } .tf.pk { fill: #005aa0; font-weight: bold; } .tf.fk { font-weight: bold; } .ty { fill: #adb1b5; font-weight: normal; text-anchor: end; } .r { fill: transparent; stroke: #c3c3c3; stroke-width: 1; } .l { stroke: 1; } .i { fill: #c2c7ce; stroke: #c2c7ce; } .i.ix { fill: #afb3b6; stroke: #000; } .fa { fill: transparent; overflow: visible; } .fa .bg.hover { fill: #f7f7f7; } .c { cy: 12; r: 4; stroke: #d2d2dc; fill: #d2d2dc; } .hr { fill: transparent; stroke: #323c46; stroke-opacity: 0.035; stroke-width: 13; } .dc { stroke: #fa5a3c; fill: #fa5a3c; } .x { stroke: white; stroke-width: 1; } .hl .th { fill: #1b9bff; } .hl .tht {  } .fhl .bg { fill: #e7f4ff; } .fhls .bg {  } .r.hl { stroke: #1b9bff; } .dim { opacity: 0.25; }</style><g class="drawing-wrapper" transform="translate(-78, 16) scale(1,1)"><g class="rs"><path d="M 407 96 m -1, 0 a 1,1 0 1,0 2,0 a 1,1 0 1,0 -2,0 M 407 96 m -0.5, 0 a 0.5,0.5 0 1,0 1,0 a 0.5,0.5 0 1,0 -1,0  M407 96 L407 96 395 96 M 407 102 m -1, 0 a 1,1 0 1,0 2,0 a 1,1 0 1,0 -2,0 M 407 102 m -0.5, 0 a 0.5,0.5 0 1,0 1,0 a 0.5,0.5 0 1,0 -1,0  M407 102 L407 102 400 96 407 90 M 407 90 m -1, 0 a 1,1 0 1,0 2,0 a 1,1 0 1,0 -2,0 M 407 90 m -0.5, 0 a 0.5,0.5 0 1,0 1,0 a 0.5,0.5 0 1,0 -1,0  M395 96 Q 367.54 96, 340.07 135 T 285.14 174 M 273.14 174 m -1, 0 a 1,1 0 1,0 2,0 a 1,1 0 1,0 -2,0 M 273.14 174 m -0.5, 0 a 0.5,0.5 0 1,0 1,0 a 0.5,0.5 0 1,0 -1,0  M273.14 174 L273.14 174 285.14 174 M279.14 180 L279.14 180 279.14 168" id="h1537058300" class="r"></path><path d="M 753 84 m -1, 0 a 1,1 0 1,0 2,0 a 1,1 0 1,0 -2,0 M 753 84 m -0.5, 0 a 0.5,0.5 0 1,0 1,0 a 0.5,0.5 0 1,0 -1,0  M753 84 L753 84 741 84 M 753 90 m -1, 0 a 1,1 0 1,0 2,0 a 1,1 0 1,0 -2,0 M 753 90 m -0.5, 0 a 0.5,0.5 0 1,0 1,0 a 0.5,0.5 0 1,0 -1,0  M753 90 L753 90 746 84 753 78 M 753 78 m -1, 0 a 1,1 0 1,0 2,0 a 1,1 0 1,0 -2,0 M 753 78 m -0.5, 0 a 0.5,0.5 0 1,0 1,0 a 0.5,0.5 0 1,0 -1,0  M741 84 Q 706.29 84, 671.58 77.5 T 602.16 71 M 590.16 71 m -1, 0 a 1,1 0 1,0 2,0 a 1,1 0 1,0 -2,0 M 590.16 71 m -0.5, 0 a 0.5,0.5 0 1,0 1,0 a 0.5,0.5 0 1,0 -1,0  M590.16 71 L590.16 71 602.16 71 M596.16 77 L596.16 77 596.16 65" id="h3177548053" class="r"></path><path d="M 265.83 342 m -1, 0 a 1,1 0 1,0 2,0 a 1,1 0 1,0 -2,0 M 265.83 342 m -0.5, 0 a 0.5,0.5 0 1,0 1,0 a 0.5,0.5 0 1,0 -1,0  M265.83 342 L265.83 342 277.83 342 M 265.83 348 m -1, 0 a 1,1 0 1,0 2,0 a 1,1 0 1,0 -2,0 M 265.83 348 m -0.5, 0 a 0.5,0.5 0 1,0 1,0 a 0.5,0.5 0 1,0 -1,0  M265.83 348 L265.83 348 272.83 342 265.83 336 M 265.83 336 m -1, 0 a 1,1 0 1,0 2,0 a 1,1 0 1,0 -2,0 M 265.83 336 m -0.5, 0 a 0.5,0.5 0 1,0 1,0 a 0.5,0.5 0 1,0 -1,0  M277.83 342 Q 307.13 342, 336.42 206.5 T 395 71 M 407 71 m -1, 0 a 1,1 0 1,0 2,0 a 1,1 0 1,0 -2,0 M 407 71 m -0.5, 0 a 0.5,0.5 0 1,0 1,0 a 0.5,0.5 0 1,0 -1,0  M407 71 L407 71 395 71 M401 77 L401 77 401 65" id="h1139284389" class="r"></path><path d="M 265.83 367 m -1, 0 a 1,1 0 1,0 2,0 a 1,1 0 1,0 -2,0 M 265.83 367 m -0.5, 0 a 0.5,0.5 0 1,0 1,0 a 0.5,0.5 0 1,0 -1,0  M265.83 367 L265.83 367 277.83 367 M 265.83 373 m -1, 0 a 1,1 0 1,0 2,0 a 1,1 0 1,0 -2,0 M 265.83 373 m -0.5, 0 a 0.5,0.5 0 1,0 1,0 a 0.5,0.5 0 1,0 -1,0  M265.83 373 L265.83 373 272.83 367 265.83 361 M 265.83 361 m -1, 0 a 1,1 0 1,0 2,0 a 1,1 0 1,0 -2,0 M 265.83 361 m -0.5, 0 a 0.5,0.5 0 1,0 1,0 a 0.5,0.5 0 1,0 -1,0  M277.83 367 Q 314.38 367, 350.92 414.5 T 424 462 M 436 462 m -1, 0 a 1,1 0 1,0 2,0 a 1,1 0 1,0 -2,0 M 436 462 m -0.5, 0 a 0.5,0.5 0 1,0 1,0 a 0.5,0.5 0 1,0 -1,0  M436 462 L436 462 424 462 M430 468 L430 468 430 456" id="h1607168654" class="r"></path><path d="M 751 310 m -1, 0 a 1,1 0 1,0 2,0 a 1,1 0 1,0 -2,0 M 751 310 m -0.5, 0 a 0.5,0.5 0 1,0 1,0 a 0.5,0.5 0 1,0 -1,0  M751 310 L751 310 739 310 M 751 316 m -1, 0 a 1,1 0 1,0 2,0 a 1,1 0 1,0 -2,0 M 751 316 m -0.5, 0 a 0.5,0.5 0 1,0 1,0 a 0.5,0.5 0 1,0 -1,0  M751 316 L751 316 744 310 751 304 M 751 304 m -1, 0 a 1,1 0 1,0 2,0 a 1,1 0 1,0 -2,0 M 751 304 m -0.5, 0 a 0.5,0.5 0 1,0 1,0 a 0.5,0.5 0 1,0 -1,0  M739 310 Q 712.55 310, 686.09 386 T 633.17 462 M 621.17 462 m -1, 0 a 1,1 0 1,0 2,0 a 1,1 0 1,0 -2,0 M 621.17 462 m -0.5, 0 a 0.5,0.5 0 1,0 1,0 a 0.5,0.5 0 1,0 -1,0  M621.17 462 L621.17 462 633.17 462 M627.17 468 L627.17 468 627.17 456" id="h1397587031" class="r"></path><path d="M 751 335 m -1, 0 a 1,1 0 1,0 2,0 a 1,1 0 1,0 -2,0 M 751 335 m -0.5, 0 a 0.5,0.5 0 1,0 1,0 a 0.5,0.5 0 1,0 -1,0  M751 335 L751 335 739 335 M 751 341 m -1, 0 a 1,1 0 1,0 2,0 a 1,1 0 1,0 -2,0 M 751 341 m -0.5, 0 a 0.5,0.5 0 1,0 1,0 a 0.5,0.5 0 1,0 -1,0  M751 341 L751 341 744 335 751 329 M 751 329 m -1, 0 a 1,1 0 1,0 2,0 a 1,1 0 1,0 -2,0 M 751 329 m -0.5, 0 a 0.5,0.5 0 1,0 1,0 a 0.5,0.5 0 1,0 -1,0  M739 335 Q 704.79 335, 670.58 203 T 602.16 71 M 590.16 71 m -1, 0 a 1,1 0 1,0 2,0 a 1,1 0 1,0 -2,0 M 590.16 71 m -0.5, 0 a 0.5,0.5 0 1,0 1,0 a 0.5,0.5 0 1,0 -1,0  M590.16 71 L590.16 71 602.16 71 M596.16 77 L596.16 77 596.16 65" id="h2286254435" class="r"></path></g><g class="hrs"></g><g class="ts"><svg width="183.16" height="225" x="407" y="14" id="h1639608377" class="t"><rect height="40" width="183.16" class="th"></rect><text x="13" y="25" class="tht">employees</text><rect height="185" width="183.16" class="t-bg"></rect><text x="13" y="61" class="tf pk">emp_no<tspan x="170.16" class="ty">INT</tspan></text><path d="M7,14A2,2 0 0,1 5,12A2,2 0 0,1 7,10A2,2 0 0,1 9,12A2,2 0 0,1 7,14M12.65,10C11.83,7.67 9.61,6 7, 6A6, 6 0 0, 0 1, 12A6, 6 0 0, 0 7, 18C9.61, 18 11.83, 16.33 12.65, 14H17V18H21V14H23V10H12.65Z" class="i pk" transform="translate(130.829921875, 48) scale(0.65)"></path><text x="13" y="86" class="tf fk">emp_title_id<tspan x="170.16" class="ty">VARCHAR(7)</tspan></text><text x="13" y="111" class="tf">birth_date<tspan x="170.16" class="ty">DATE</tspan></text><text x="13" y="136" class="tf">first_name<tspan x="170.16" class="ty">VARCHAR(30)</tspan></text><text x="13" y="161" class="tf">last_name<tspan x="170.16" class="ty">VARCHAR(30)</tspan></text><text x="13" y="186" class="tf">sex<tspan x="170.16" class="ty">VARCHAR(1)</tspan></text><text x="13" y="211" class="tf">hire_date<tspan x="170.16" class="ty">DATE</tspan></text></svg><svg width="108.7" height="100" x="753" y="27" id="h2472833127" class="t"><rect height="40" width="108.7" class="th"></rect><text x="13" y="25" class="tht">salaries</text><rect height="60" width="108.7" class="t-bg"></rect><text x="13" y="61" class="tf fk">emp_no<tspan x="95.7" class="ty">INT</tspan></text><text x="13" y="86" class="tf">salary<tspan x="95.7" class="ty">INT</tspan></text></svg><svg width="161.83" height="100" x="751" y="253" id="h1676682957" class="t"><rect height="40" width="161.83" class="th"></rect><text x="13" y="25" class="tht">dept_manager</text><rect height="60" width="161.83" class="t-bg"></rect><text x="13" y="61" class="tf fk">dept_no<tspan x="148.83" class="ty">VARCHAR(7)</tspan></text><text x="13" y="86" class="tf fk">emp_no<tspan x="148.83" class="ty">INT</tspan></text></svg><svg width="185.17" height="100" x="436" y="405" id="h475896179" class="t"><rect height="40" width="185.17" class="th"></rect><text x="13" y="25" class="tht">departments</text><rect height="60" width="185.17" class="t-bg"></rect><text x="13" y="61" class="tf pk">dept_no<tspan x="172.17" class="ty">VARCHAR(7)</tspan></text><path d="M7,14A2,2 0 0,1 5,12A2,2 0 0,1 7,10A2,2 0 0,1 9,12A2,2 0 0,1 7,14M12.65,10C11.83,7.67 9.61,6 7, 6A6, 6 0 0, 0 1, 12A6, 6 0 0, 0 7, 18C9.61, 18 11.83, 16.33 12.65, 14H17V18H21V14H23V10H12.65Z" class="i pk" transform="translate(79.71882812499999, 48) scale(0.65)"></path><text x="13" y="86" class="tf">dept_name<tspan x="172.17" class="ty">VARCHAR(20)</tspan></text></svg><svg width="161.83" height="100" x="104" y="285" id="h1090417462" class="t"><rect height="40" width="161.83" class="th"></rect><text x="13" y="25" class="tht">dept_emp</text><rect height="60" width="161.83" class="t-bg"></rect><text x="13" y="61" class="tf fk">emp_no<tspan x="148.83" class="ty">INT</tspan></text><text x="13" y="86" class="tf fk">dept_no<tspan x="148.83" class="ty">VARCHAR(7)</tspan></text></svg><svg width="173.14" height="100" x="100" y="117" id="h311790747" class="t"><rect height="40" width="173.14" class="th"></rect><text x="13" y="25" class="tht">titles</text><rect height="60" width="173.14" class="t-bg"></rect><text x="13" y="61" class="tf pk">title_id<tspan x="160.14" class="ty">VARCHAR(7)</tspan></text><path d="M7,14A2,2 0 0,1 5,12A2,2 0 0,1 7,10A2,2 0 0,1 9,12A2,2 0 0,1 7,14M12.65,10C11.83,7.67 9.61,6 7, 6A6, 6 0 0, 0 1, 12A6, 6 0 0, 0 7, 18C9.61, 18 11.83, 16.33 12.65, 14H17V18H21V14H23V10H12.65Z" class="i pk" transform="translate(67.68882812499999, 48) scale(0.65)"></path><text x="13" y="86" class="tf">title<tspan x="160.14" class="ty">VARCHAR(20)</tspan></text></svg></g></g><text class="qdbd-link" x="10" y="20">www.quickdatabasediagrams.com</text></svg>